<svg width="69" height="67" viewBox="0 0 69 67" fill="none" xmlns="http://www.w3.org/2000/svg">
<rect x="0.40271" width="67.8009" height="67" rx="33.5" fill="black"/>
<g clip-path="url(#clip0_33_41)">
<path d="M34.3101 25.5336C29.7805 25.5336 26.127 29.0875 26.127 33.4936C26.127 37.8998 29.7805 41.4537 34.3101 41.4537C38.8396 41.4537 42.4932 37.8998 42.4932 33.4936C42.4932 29.0875 38.8396 25.5336 34.3101 25.5336ZM34.3101 38.6687C31.383 38.6687 28.99 36.3479 28.99 33.4936C28.99 30.6394 31.3759 28.3185 34.3101 28.3185C37.2443 28.3185 39.6302 30.6394 39.6302 33.4936C39.6302 36.3479 37.2372 38.6687 34.3101 38.6687V38.6687ZM44.7366 25.2079C44.7366 26.2402 43.882 27.0646 42.8279 27.0646C41.7668 27.0646 40.9192 26.2333 40.9192 25.2079C40.9192 24.1826 41.7739 23.3513 42.8279 23.3513C43.882 23.3513 44.7366 24.1826 44.7366 25.2079ZM50.1564 27.0923C50.0353 24.6052 49.4513 22.4022 47.5783 20.5871C45.7123 18.772 43.4475 18.2039 40.8908 18.0792C38.2556 17.9337 30.3574 17.9337 27.7223 18.0792C25.1726 18.197 22.9079 18.765 21.0348 20.5801C19.1617 22.3952 18.5848 24.5983 18.4567 27.0854C18.3071 29.6487 18.3071 37.3317 18.4567 39.895C18.5777 42.3821 19.1617 44.5851 21.0348 46.4002C22.9079 48.2153 25.1655 48.7834 27.7223 48.9081C30.3574 49.0536 38.2556 49.0536 40.8908 48.9081C43.4475 48.7903 45.7123 48.2222 47.5783 46.4002C49.4442 44.5851 50.0282 42.3821 50.1564 39.895C50.306 37.3317 50.306 29.6556 50.1564 27.0923V27.0923ZM46.7521 42.6453C46.1966 44.0032 45.1212 45.0493 43.7182 45.5966C41.6172 46.4071 36.6318 46.2201 34.3101 46.2201C31.9883 46.2201 26.9959 46.4002 24.902 45.5966C23.5061 45.0562 22.4307 44.0101 21.8681 42.6453C21.0348 40.6016 21.2271 35.7521 21.2271 33.4936C21.2271 31.2352 21.0419 26.3787 21.8681 24.342C22.4236 22.9841 23.499 21.938 24.902 21.3907C27.003 20.5801 31.9883 20.7672 34.3101 20.7672C36.6318 20.7672 41.6243 20.5871 43.7182 21.3907C45.1141 21.9311 46.1895 22.9772 46.7521 24.342C47.5854 26.3857 47.3931 31.2352 47.3931 33.4936C47.3931 35.7521 47.5854 40.6085 46.7521 42.6453Z" fill="#F0F0F0"/>
</g>
<defs>
<clipPath id="clip0_33_41">
<rect width="31.9063" height="35.4706" fill="white" transform="translate(18.3503 15.7647)"/>
</clipPath>
</defs>
</svg>
