<svg width="69" height="67" viewBox="0 0 69 67" fill="none" xmlns="http://www.w3.org/2000/svg">
<rect x="0.800903" width="67.8009" height="67" rx="33.5" fill="black"/>
<g clip-path="url(#clip0_33_33)">
<path d="M52.6483 23.0646C51.3041 23.6251 49.8784 23.9931 48.4186 24.1562C49.9392 23.2982 51.1068 21.9395 51.6565 20.3207C50.211 21.1282 48.6295 21.6972 46.9803 22.003C45.6369 20.6557 43.7231 19.8137 41.6049 19.8137C37.5379 19.8137 34.2405 22.9178 34.2405 26.7463C34.2405 27.2898 34.3057 27.8189 34.4312 28.3264C28.3109 28.0372 22.8846 25.2772 19.2524 21.0827C18.6186 22.1066 18.2555 23.2977 18.2555 24.5681C18.2555 26.9734 19.5557 29.0953 21.5316 30.3386C20.3621 30.3041 19.2184 30.0068 18.1959 29.4714C18.1955 29.5004 18.1955 29.5295 18.1955 29.5586C18.1955 32.9177 20.7339 35.7198 24.1027 36.3567C23.0182 36.6343 21.8807 36.675 20.7771 36.4755C21.7141 39.2298 24.4338 41.2341 27.6562 41.2902C25.1359 43.1496 21.9605 44.258 18.5104 44.258C17.9159 44.258 17.3298 44.2251 16.7537 44.1611C20.0126 46.1282 23.8835 47.2759 28.0422 47.2759C41.5878 47.2759 48.9949 36.7118 48.9949 27.5504C48.9949 27.2497 48.9879 26.9507 48.9736 26.6534C50.4153 25.6722 51.6596 24.4569 52.6483 23.0646Z" fill="#F0F0F0"/>
</g>
<defs>
<clipPath id="clip0_33_33">
<rect width="35.8946" height="27.5882" fill="white" transform="translate(16.7537 19.7059)"/>
</clipPath>
</defs>
</svg>
