<svg width="69" height="67" viewBox="0 0 69 67" fill="none" xmlns="http://www.w3.org/2000/svg">
<rect x="0.601807" width="67.8009" height="67" rx="33.5" fill="black"/>
<g clip-path="url(#clip0_33_37)">
<path d="M25.7935 47.2941V27.3508H18.953V47.2941H25.7935ZM22.3741 24.6262C24.7595 24.6262 26.2443 23.0948 26.2443 21.181C26.1999 19.2241 24.7596 17.7352 22.4194 17.7352C20.0795 17.7352 18.5494 19.2242 18.5494 21.181C18.5494 23.0949 20.0338 24.6262 22.3295 24.6262H22.3739H22.3741ZM29.5797 47.2941H36.4202V36.1568C36.4202 35.5607 36.4646 34.9653 36.6453 34.5392C37.1398 33.3483 38.2653 32.1149 40.155 32.1149C42.6303 32.1149 43.6205 33.9437 43.6205 36.6247V47.2939H50.4606V35.8586C50.4606 29.7328 47.0859 26.8826 42.5852 26.8826C38.895 26.8826 37.2748 28.8814 36.3747 30.2428H36.4204V27.3504H29.5798C29.6696 29.2217 29.5798 47.2937 29.5798 47.2937L29.5797 47.2941Z" fill="#F0F0F0"/>
</g>
<defs>
<clipPath id="clip0_33_37">
<rect width="31.9063" height="29.5588" fill="white" transform="translate(18.5494 17.7353)"/>
</clipPath>
</defs>
</svg>
